<svg aria-hidden="true" style="width:0;height:0;position:absolute;overflow:hidden" xmlns="http://www.w3.org/2000/svg"><defs><symbol id="icon-cross" viewBox="0 0 32 32"><path fill="none" stroke="#fff" style="stroke:var(--color1,#fff)" stroke-width="3.556" d="M1.778 30.221 30.222 1.777M30.222 30.221 1.778 1.777"/></symbol><symbol id="icon-menu" viewBox="0 0 32 32"><path d="M6.4 11.733V9.6h19.2v2.133H6.4zm0 5.334h19.2v-2.133H6.4v2.133zm0 5.333h19.2v-2.133H6.4V22.4z"/></symbol><symbol id="icon-phone" viewBox="0 0 32 32"><path fill="none" stroke="#f7931e" style="stroke:var(--color1,#f7931e)" stroke-linejoin="round" stroke-linecap="round" stroke-width="2.667" d="M30.545 23.156v4.364a2.915 2.915 0 0 1-1.978 2.767c-.384.13-.79.178-1.194.141a28.792 28.792 0 0 1-12.553-4.465 28.367 28.367 0 0 1-8.727-8.727A28.784 28.784 0 0 1 1.628 4.625a2.91 2.91 0 0 1 2.894-3.171h4.364a2.908 2.908 0 0 1 2.909 2.501 18.685 18.685 0 0 0 1.018 4.087 2.905 2.905 0 0 1-.655 3.069l-1.847 1.847a23.27 23.27 0 0 0 8.727 8.727l1.847-1.847a2.909 2.909 0 0 1 3.069-.655c1.319.493 2.691.833 4.087 1.018a2.91 2.91 0 0 1 2.502 2.953z"/></symbol><symbol id="icon-clock" viewBox="0 0 32 32"><path fill="#f7931e" style="fill:var(--color1,#f7931e)" d="M16 32C7.2 32 0 24.8 0 16S7.2 0 16 0s16 7.2 16 16-7.2 16-16 16zm0-29.333c-7.333 0-13.333 6-13.333 13.333s6 13.333 13.333 13.333 13.333-6 13.333-13.333S23.333 2.667 16 2.667z"/><path fill="#f7931e" style="fill:var(--color1,#f7931e)" d="M16 17.333c-.8 0-1.333-.533-1.333-1.333V6.667c0-.8.533-1.333 1.333-1.333s1.333.533 1.333 1.333V16c0 .8-.533 1.333-1.333 1.333z"/><path fill="#f7931e" style="fill:var(--color1,#f7931e)" d="M21.333 22.667c-.4 0-.667-.133-.933-.4l-5.333-5.333c-.533-.533-.533-1.333 0-1.867s1.333-.533 1.867 0l5.333 5.333a1.29 1.29 0 0 1 0 1.867c-.267.267-.533.4-.933.4z"/></symbol><symbol id="icon-location-cont" viewBox="0 0 32 32"><path fill="#f7931e" style="fill:var(--color1,#f7931e)" d="M23.791 2.748C21.808.974 19.026 0 16 0s-5.809.974-7.791 2.748c-2.435 2.157-3.687 5.391-3.687 9.426 0 8.731 10.052 18.991 10.504 19.409.278.278.626.417.974.417s.73-.139.974-.417c.452-.417 10.504-10.678 10.504-19.409 0-4.035-1.252-7.27-3.687-9.426zM16 28.557a52.062 52.062 0 0 1-3.896-4.87c-3.13-4.452-4.8-8.417-4.8-11.513 0-8.696 6.643-9.391 8.696-9.391 8.069 0 8.696 7.2 8.696 9.391 0 6.122-6.226 13.67-8.696 16.383zm0-22.54c-3.061 0-5.53 2.539-5.53 5.635s2.47 5.6 5.53 5.6c3.061 0 5.53-2.539 5.53-5.635s-2.47-5.6-5.53-5.6zm0 8.8c-1.704 0-3.096-1.426-3.096-3.2s1.391-3.2 3.096-3.2c1.704 0 3.096 1.426 3.096 3.2s-1.391 3.2-3.096 3.2z"/></symbol><symbol id="icon-gym-time" viewBox="0 0 32 32"><path fill="#f7931e" style="fill:var(--color1,#f7931e)" d="M21.5 15.5h-4.092a1.505 1.505 0 0 0-.908-.908V8.5A.498.498 0 0 0 16 8a.5.5 0 0 0-.5.5v6.092a1.5 1.5 0 0 0-.942 1.827 1.495 1.495 0 0 0 1.77 1.044 1.498 1.498 0 0 0 1.08-.963H21.5a.498.498 0 0 0 .5-.5.5.5 0 0 0-.5-.5zm-5.5 1a.5.5 0 1 1 .192-.962.5.5 0 0 1-.192.962zm16-.5a16 16 0 1 0-28.984 9.346 1.32 1.32 0 0 0-.015.153v1a1.5 1.5 0 0 0 1.5 1.5h.5v1.086a1.914 1.914 0 0 0 1.914 1.914h.172c.36-.001.712-.104 1.016-.298a1.873 1.873 0 0 0 1.779 1.298h.24c.498-.001.976-.199 1.329-.551s.551-.83.551-1.329v-2.12h8v2.12c.001.498.199.976.551 1.329s.83.551 1.329.551h.24a1.878 1.878 0 0 0 1.779-1.298c.303.194.656.297 1.016.298h.172a1.914 1.914 0 0 0 1.914-1.914v-1.086h.5a1.5 1.5 0 0 0 1.5-1.5v-1a1.3 1.3 0 0 0-.016-.153 15.89 15.89 0 0 0 3.016-9.347zM5 27h-.5c-.133 0-.26-.053-.353-.147S4.001 26.632 4 26.5v-1c0-.133.053-.26.147-.353s.221-.146.353-.147H5v2zm3 2.086a.915.915 0 0 1-.914.914h-.172A.915.915 0 0 1 6 29.086v-5.172A.915.915 0 0 1 6.914 23h.172a.915.915 0 0 1 .914.914v5.172zm3 1.034a.88.88 0 0 1-.88.88h-.24a.88.88 0 0 1-.88-.88v-8.24a.88.88 0 0 1 .88-.88h.24a.88.88 0 0 1 .88.88v8.24zM20 27h-8v-2h8v2zm3-3.086v6.206a.88.88 0 0 1-.88.88h-.24a.88.88 0 0 1-.88-.88v-8.24a.88.88 0 0 1 .88-.88h.24a.88.88 0 0 1 .88.88v2.034zm3 5.172a.915.915 0 0 1-.914.914h-.172a.915.915 0 0 1-.914-.914v-5.172a.915.915 0 0 1 .914-.914h.172a.915.915 0 0 1 .914.914v5.172zm.179-6.739a1.901 1.901 0 0 0-1.093-.346h-.172a1.89 1.89 0 0 0-.914.243v-.363c-.001-.498-.199-.976-.551-1.329s-.83-.551-1.329-.551h-.24c-.498.001-.976.199-1.329.551s-.551.83-.551 1.329v2.12h-8v-2.12c-.001-.498-.199-.976-.551-1.329s-.83-.551-1.329-.551h-.24c-.498.001-.976.199-1.329.551S8 21.382 8 21.881v.363a1.89 1.89 0 0 0-.914-.243h-.172c-.391 0-.773.121-1.093.346a11.943 11.943 0 0 1-1.802-5.846H5.5a.498.498 0 0 0 .5-.5.5.5 0 0 0-.5-.5H4.024a11.889 11.889 0 0 1 3.153-7.615L8.221 8.93a.5.5 0 0 0 .706-.706L7.883 7.18a11.884 11.884 0 0 1 7.616-3.153v1.476a.498.498 0 0 0 .5.5.5.5 0 0 0 .5-.5V4.027a11.888 11.888 0 0 1 7.616 3.153l-1.044 1.044a.485.485 0 0 0-.149.354.492.492 0 0 0 .147.356.497.497 0 0 0 .71-.004l1.044-1.044a11.889 11.889 0 0 1 3.153 7.616H26.5a.498.498 0 0 0-.5.5.5.5 0 0 0 .5.5h1.481a11.943 11.943 0 0 1-1.802 5.846zM28 26.5c0 .133-.053.26-.147.353s-.221.146-.353.147H27v-2h.5c.133 0 .26.053.353.147s.146.221.147.353v1zm.454-2.148A1.482 1.482 0 0 0 27.5 24H27v-.086a1.9 1.9 0 0 0-.156-.755A12.997 12.997 0 0 0 22.671 4.83 13 13 0 0 0 5.158 23.159a1.9 1.9 0 0 0-.156.755V24h-.5a1.49 1.49 0 0 0-.954.352A14.996 14.996 0 0 1 5.652 5.146a14.995 14.995 0 0 1 12.909-3.927A15 15 0 0 1 31.004 16a14.891 14.891 0 0 1-2.546 8.352z"/></symbol><symbol id="icon-wallet" viewBox="0 0 32 32"><path fill="#f7931e" style="fill:var(--color1,#f7931e)" d="M31.333 26.667A3.333 3.333 0 0 1 28 30H4a3.333 3.333 0 0 1-3.333-3.333V7.334a2.667 2.667 0 0 1 2.667-2.667h13.447l5.399-1.956a.66.66 0 0 1 .845.393l.569 1.563H26a2.667 2.667 0 0 1 2.667 2.667v1.333a2.667 2.667 0 0 1 2.667 2.667v15.333zM3.333 6a1.333 1.333 0 0 0 0 2.666h2.423c.009-.003.014-.011.023-.014L13.1 5.999H3.333zm19.386.121-.708-1.949h-.001L9.603 8.667h14.041l-.925-2.546zm4.614 1.212C27.333 6.597 26.736 6 26 6h-1.922l.969 2.667h2.286V7.334zM28.667 10H3.334c-.488 0-.94-.141-1.333-.37v17.037a2 2 0 0 0 2 2h24a2 2 0 0 0 2-2V22h-2.667a2.667 2.667 0 1 1 0-5.334h2.667v-5.333c0-.736-.597-1.333-1.333-1.333zM30 20.667V18h-2.667a1.333 1.333 0 0 0 0 2.666H30zm-2.667-2h1.333V20h-1.333v-1.333z"/></symbol><symbol id="icon-location" viewBox="0 0 32 32"><path fill="#f7931e" style="fill:var(--color1,#f7931e)" d="M18.667 10.333a2.666 2.666 0 1 0-5.334 0 2.666 2.666 0 1 0 5.334 0zm-4 0C14.667 9.6 15.267 9 16 9s1.333.6 1.333 1.333-.6 1.333-1.333 1.333-1.333-.6-1.333-1.333z"/><path fill="#f7931e" style="fill:var(--color1,#f7931e)" d="M2.667 27h26.667c.233 0 .447-.12.567-.32s.133-.44.027-.647l-5.333-10.667a.658.658 0 0 0-.593-.367h-4.153c.987-2.18 1.487-3.753 1.487-4.667 0-2.94-2.393-5.333-5.333-5.333s-5.333 2.393-5.333 5.333c0 .913.5 2.487 1.487 4.667H8.004c-.253 0-.48.14-.593.367L2.078 26.033a.657.657 0 0 0 .027.647c.12.2.333.32.567.32zM12 10.333c0-2.207 1.793-4 4-4s4 1.793 4 4c0 1.527-2.013 5.707-4 9.307-1.987-3.6-4-7.78-4-9.307zm-3.587 6h4.367a85.765 85.765 0 0 0 2.647 5c.24.413.92.413 1.153 0 .06-.1 1.4-2.427 2.647-5h4.367l4.667 9.333H3.748l4.667-9.333z"/></symbol><symbol id="icon-dumbbell" viewBox="0 0 32 32"><path fill="#f7931e" style="fill:var(--color1,#f7931e)" d="M3.6 21.2H6v.4c0 .882.718 1.6 1.6 1.6H10c.882 0 1.6-.718 1.6-1.6v-3.2h8.8v3.2c0 .882.718 1.6 1.6 1.6h2.4c.882 0 1.6-.718 1.6-1.6v-.4h2.4c.882 0 1.6-.718 1.6-1.6v-7.2c0-.882-.718-1.6-1.6-1.6H26v-.4c0-.882-.718-1.6-1.6-1.6H22c-.882 0-1.6.718-1.6 1.6v3.2h-8.8v-3.2c0-.882-.718-1.6-1.6-1.6H7.6c-.882 0-1.6.718-1.6 1.6v.4H3.6c-.882 0-1.6.718-1.6 1.6v7.2c0 .882.718 1.6 1.6 1.6zm24.8-8.8v7.2H26v-7.2h2.4zm-6.4-2h2.4v11.2H22V10.4zm-1.7 4.8v1.6h-8.7v-1.6h8.7zM7.6 10.4H10v8h.001v3.2H7.6V10.4zm-4 2H6v7.2H3.6v-7.2z"/></symbol><symbol id="icon-stationary-bike" viewBox="0 0 32 32"><path fill="#f7931e" style="fill:var(--color1,#f7931e)" d="M28.32 24.592a4.308 4.308 0 0 0 1.76-3.472 4.297 4.297 0 0 0-3.056-4.128l-2.326-.714 1.053-5.011a8.017 8.017 0 0 0 4.467-5.562 1.925 1.925 0 0 0-.384-1.629 1.923 1.923 0 0 0-1.504-.717h-.083c-.864 0-1.594.608-1.77 1.478a4.152 4.152 0 0 1-3.226 3.235c-.717.147-1.264.717-1.43 1.421a.51.51 0 0 0-.048.134l-1.139 5.408-9.818-3.005-.912-2.272h.522a2.056 2.056 0 0 0 2.054-2.054c0-.963-.685-1.808-1.626-2.013L5.436 4.533a2.616 2.616 0 0 0-2.214.528 2.644 2.644 0 0 0 1.661 4.697h.445l.902 2.259a6.96 6.96 0 0 0-1.834.976 6.824 6.824 0 0 0-2.797 5.546 6.907 6.907 0 0 0 3.027 5.709 3.84 3.84 0 0 0-3.027 3.75c0 .352.288.64.64.64h27.52c.352 0 .64-.288.64-.64a3.839 3.839 0 0 0-2.08-3.408zM23.514 9.325a5.436 5.436 0 0 0 4.218-4.23c.054-.266.266-.454.515-.454h.083a.646.646 0 0 1 .637.794 6.724 6.724 0 0 1-5.133 5.133.653.653 0 0 1-.557-.128.62.62 0 0 1-.237-.496.62.62 0 0 1 .474-.618zm-.842 2.243a1.908 1.908 0 0 0 1.433.249c.077-.016.157-.042.234-.061l-.87 4.147-1.606-.49.81-3.846zM4.883 8.48a1.364 1.364 0 0 1-.003-2.726c.096 0 .192.01.288.032l5.418 1.162a.778.778 0 0 1 .614.758.777.777 0 0 1-.774.774H4.884zm4.413 3.207a6.691 6.691 0 0 0-1.811.026l-.781-1.952h1.824l.768 1.926zM2.88 18.541c0-1.802.829-3.446 2.278-4.518a5.562 5.562 0 0 1 4.986-.854l16.506 5.046a3.024 3.024 0 0 1 2.15 2.906 3.042 3.042 0 0 1-3.04 3.04H8.499a5.626 5.626 0 0 1-5.619-5.619zm.08 8.819a2.565 2.565 0 0 1 2.48-1.92h21.12c1.19 0 2.195.816 2.48 1.92H2.96zm8.176-5.728.934.781.029.019c.013.01.029.019.045.029.019.013.038.022.058.032.016.01.032.016.045.022.026.01.048.016.074.022l.042.01a.46.46 0 0 0 .118.013h1.6c.352 0 .64-.288.64-.64s-.288-.64-.64-.64h-1.37l-.755-.63a3.796 3.796 0 0 0 .525-1.93c0-2.118-1.722-3.84-3.84-3.84s-3.84 1.722-3.84 3.84a3.844 3.844 0 0 0 3.84 3.84c.954 0 1.824-.352 2.496-.928zM6.08 18.72c0-1.411 1.149-2.56 2.56-2.56s2.56 1.149 2.56 2.56c0 .39-.09.762-.25 1.094l-1.901-1.587a.643.643 0 0 0-.902.083.643.643 0 0 0 .083.902l1.901 1.584a2.53 2.53 0 0 1-1.491.483 2.564 2.564 0 0 1-2.56-2.56zm10.56 3.2c0-.352.288-.64.64-.64h.64c.352 0 .64.288.64.64s-.288.64-.64.64h-.64a.642.642 0 0 1-.64-.64zm3.84 0c0-.352.288-.64.64-.64h.64c.352 0 .64.288.64.64s-.288.64-.64.64h-.64a.642.642 0 0 1-.64-.64zm3.84 0c0-.352.288-.64.64-.64h.64c.352 0 .64.288.64.64s-.288.64-.64.64h-.64a.642.642 0 0 1-.64-.64z"/></symbol><symbol id="icon-facebook" viewBox="0 0 32 32"><path d="M29 0H3C1.35 0 0 1.35 0 3v26c0 1.65 1.35 3 3 3h13V18h-4v-4h4v-2c0-3.306 2.694-6 6-6h4v4h-4c-1.1 0-2 .9-2 2v2h6l-1 4h-5v14h9c1.65 0 3-1.35 3-3V3c0-1.65-1.35-3-3-3z"/></symbol><symbol id="icon-instagram" viewBox="0 0 32 32"><path d="M16 2.881c4.275 0 4.781.019 6.462.094 1.563.069 2.406.331 2.969.55a4.952 4.952 0 0 1 1.837 1.194 5.015 5.015 0 0 1 1.2 1.838c.219.563.481 1.412.55 2.969.075 1.688.094 2.194.094 6.463s-.019 4.781-.094 6.463c-.069 1.563-.331 2.406-.55 2.969a4.94 4.94 0 0 1-1.194 1.837 5.02 5.02 0 0 1-1.837 1.2c-.563.219-1.413.481-2.969.55-1.688.075-2.194.094-6.463.094s-4.781-.019-6.463-.094c-1.563-.069-2.406-.331-2.969-.55a4.952 4.952 0 0 1-1.838-1.194 5.02 5.02 0 0 1-1.2-1.837c-.219-.563-.481-1.413-.55-2.969-.075-1.688-.094-2.194-.094-6.463s.019-4.781.094-6.463c.069-1.563.331-2.406.55-2.969a4.964 4.964 0 0 1 1.194-1.838 5.015 5.015 0 0 1 1.838-1.2c.563-.219 1.412-.481 2.969-.55 1.681-.075 2.188-.094 6.463-.094zM16 0c-4.344 0-4.887.019-6.594.094-1.7.075-2.869.35-3.881.744-1.056.412-1.95.956-2.837 1.85a7.833 7.833 0 0 0-1.85 2.831C.444 6.538.169 7.7.094 9.4.019 11.113 0 11.656 0 16s.019 4.887.094 6.594c.075 1.7.35 2.869.744 3.881.413 1.056.956 1.95 1.85 2.837a7.82 7.82 0 0 0 2.831 1.844c1.019.394 2.181.669 3.881.744 1.706.075 2.25.094 6.594.094s4.888-.019 6.594-.094c1.7-.075 2.869-.35 3.881-.744 1.05-.406 1.944-.956 2.831-1.844s1.438-1.781 1.844-2.831c.394-1.019.669-2.181.744-3.881.075-1.706.094-2.25.094-6.594s-.019-4.887-.094-6.594c-.075-1.7-.35-2.869-.744-3.881a7.506 7.506 0 0 0-1.831-2.844A7.82 7.82 0 0 0 26.482.843C25.463.449 24.301.174 22.601.099c-1.712-.081-2.256-.1-6.6-.1z"/><path d="M16 7.781c-4.537 0-8.219 3.681-8.219 8.219s3.681 8.219 8.219 8.219 8.219-3.681 8.219-8.219A8.221 8.221 0 0 0 16 7.781zm0 13.55a5.331 5.331 0 1 1 0-10.663 5.331 5.331 0 0 1 0 10.663zM26.462 7.456a1.919 1.919 0 1 1-3.838 0 1.919 1.919 0 0 1 3.838 0z"/></symbol></defs></svg>