<svg aria-hidden="true" style="position: absolute; width: 0; height: 0; overflow: hidden;"
    version="1.1"
    xmlns="http://www.w3.org/2000/svg" xmlns:xlink="http://www.w3.org/1999/xlink">
    <defs>
        <symbol id="icon-cross" viewBox="0 0 32 32">
            <path fill="none" stroke="#fff" style="stroke: var(--color1, #fff)"
                stroke-linejoin="miter"
                stroke-linecap="butt" stroke-miterlimit="4" stroke-width="3.5556"
                d="M1.778 30.221l28.444-28.444">
            </path>
            <path fill="none" stroke="#fff" style="stroke: var(--color1, #fff)"
                stroke-linejoin="miter"
                stroke-linecap="butt" stroke-miterlimit="4" stroke-width="3.5556"
                d="M30.222 30.221l-28.444-28.444">
            </path>
        </symbol>
        <symbol id="icon-menu" viewBox="0 0 32 32">
            <path
                d="M6.4 11.733v-2.133h19.2v2.133h-19.2zM6.4 17.067h19.2v-2.133h-19.2v2.133zM6.4 22.4h19.2v-2.133h-19.2v2.133z"></path>
        </symbol>
        <symbol id="icon-phone" viewBox="0 0 32 32">
            <path fill="none" stroke="#f7931e" style="stroke: var(--color1, #f7931e)"
                stroke-linejoin="round"
                stroke-linecap="round" stroke-miterlimit="4" stroke-width="2.6667"
                d="M30.545 23.156v4.364c0.002 0.405-0.081 0.806-0.244 1.177s-0.4 0.704-0.699 0.978-0.651 0.482-1.035 0.612c-0.384 0.13-0.79 0.178-1.194 0.141-4.476-0.486-8.775-2.016-12.553-4.465-3.514-2.233-6.494-5.213-8.727-8.727-2.458-3.795-3.988-8.115-4.465-12.611-0.036-0.402 0.011-0.808 0.14-1.19s0.336-0.734 0.608-1.033c0.272-0.298 0.604-0.537 0.973-0.7s0.769-0.248 1.173-0.248h4.364c0.706-0.007 1.39 0.243 1.925 0.703s0.885 1.099 0.984 1.798c0.185 1.396 0.525 2.768 1.018 4.087 0.196 0.521 0.238 1.086 0.122 1.63s-0.386 1.043-0.777 1.439l-1.847 1.847c2.071 3.642 5.086 6.657 8.727 8.727l1.847-1.847c0.395-0.391 0.895-0.661 1.439-0.777s1.11-0.074 1.63 0.122c1.319 0.493 2.691 0.833 4.087 1.018 0.707 0.1 1.352 0.456 1.813 1s0.706 1.239 0.689 1.953z">
            </path>
        </symbol>
        <symbol id="icon-clock" viewBox="0 0 32 32">
            <path fill="#f7931e" style="fill: var(--color1, #f7931e)"
                d="M16 32c-8.8 0-16-7.2-16-16s7.2-16 16-16c8.8 0 16 7.2 16 16s-7.2 16-16 16zM16 2.667c-7.333 0-13.333 6-13.333 13.333s6 13.333 13.333 13.333c7.333 0 13.333-6 13.333-13.333s-6-13.333-13.333-13.333z">
            </path>
            <path fill="#f7931e" style="fill: var(--color1, #f7931e)"
                d="M16 17.333c-0.8 0-1.333-0.533-1.333-1.333v-9.333c0-0.8 0.533-1.333 1.333-1.333s1.333 0.533 1.333 1.333v9.333c0 0.8-0.533 1.333-1.333 1.333z">
            </path>
            <path fill="#f7931e" style="fill: var(--color1, #f7931e)"
                d="M21.333 22.667c-0.4 0-0.667-0.133-0.933-0.4l-5.333-5.333c-0.533-0.533-0.533-1.333 0-1.867s1.333-0.533 1.867 0l5.333 5.333c0.533 0.533 0.533 1.333 0 1.867-0.267 0.267-0.533 0.4-0.933 0.4z">
            </path>
        </symbol>
        <symbol id="icon-location-cont" viewBox="0 0 32 32">
            <path fill="#f7931e" style="fill: var(--color1, #f7931e)"
                d="M23.791 2.748c-1.983-1.774-4.765-2.748-7.791-2.748s-5.809 0.974-7.791 2.748c-2.435 2.157-3.687 5.391-3.687 9.426 0 8.731 10.052 18.991 10.504 19.409 0.278 0.278 0.626 0.417 0.974 0.417s0.73-0.139 0.974-0.417c0.452-0.417 10.504-10.678 10.504-19.409 0-4.035-1.252-7.27-3.687-9.426zM16 28.557c-0.939-1.043-2.435-2.783-3.896-4.87-3.13-4.452-4.8-8.417-4.8-11.513 0-8.696 6.643-9.391 8.696-9.391 8.069 0 8.696 7.2 8.696 9.391 0 6.122-6.226 13.67-8.696 16.383zM16 6.017c-3.061 0-5.53 2.539-5.53 5.635s2.47 5.6 5.53 5.6c3.061 0 5.53-2.539 5.53-5.635s-2.47-5.6-5.53-5.6zM16 14.817c-1.704 0-3.096-1.426-3.096-3.2s1.391-3.2 3.096-3.2c1.704 0 3.096 1.426 3.096 3.2s-1.391 3.2-3.096 3.2z">
            </path>
        </symbol>
        <symbol id="icon-gym-time" viewBox="0 0 32 32">
            <path fill="#f7931e" style="fill: var(--color1, #f7931e)"
                d="M21.5 15.5h-4.092c-0.075-0.209-0.195-0.399-0.352-0.556s-0.347-0.277-0.556-0.352v-6.092c0-0.133-0.053-0.26-0.146-0.354s-0.221-0.146-0.354-0.146-0.26 0.053-0.354 0.146c-0.094 0.094-0.146 0.221-0.146 0.354v6.092c-0.239 0.084-0.452 0.227-0.621 0.416s-0.286 0.417-0.342 0.664c-0.056 0.247-0.049 0.504 0.021 0.747s0.201 0.464 0.38 0.643c0.179 0.179 0.4 0.309 0.643 0.38s0.5 0.078 0.747 0.021c0.247-0.056 0.475-0.174 0.664-0.342s0.332-0.382 0.416-0.621h4.092c0.133 0 0.26-0.053 0.354-0.146s0.146-0.221 0.146-0.354-0.053-0.26-0.146-0.354c-0.094-0.094-0.221-0.146-0.354-0.146zM16 16.5c-0.099 0-0.196-0.029-0.278-0.084s-0.146-0.133-0.184-0.224-0.048-0.192-0.028-0.289c0.019-0.097 0.067-0.186 0.137-0.256s0.159-0.118 0.256-0.137c0.097-0.019 0.197-0.009 0.289 0.028s0.169 0.102 0.224 0.184c0.055 0.082 0.084 0.179 0.084 0.278-0 0.133-0.053 0.26-0.147 0.353s-0.221 0.147-0.353 0.147zM32 16c0-2.522-0.595-5.009-1.739-7.257s-2.802-4.194-4.841-5.679c-2.039-1.485-4.4-2.467-6.89-2.866s-5.040-0.203-7.44 0.571c-2.4 0.774-4.584 2.105-6.372 3.883s-3.131 3.955-3.918 6.351c-0.787 2.396-0.997 4.944-0.612 7.437s1.354 4.859 2.828 6.906c-0.008 0.051-0.013 0.102-0.015 0.153v1c0 0.398 0.159 0.779 0.44 1.060s0.662 0.439 1.060 0.44h0.5v1.086c0 0.507 0.202 0.994 0.561 1.353s0.845 0.561 1.353 0.561h0.172c0.36-0.001 0.712-0.104 1.016-0.298 0.122 0.376 0.359 0.704 0.679 0.937s0.704 0.359 1.1 0.361h0.24c0.498-0.001 0.976-0.199 1.329-0.551s0.551-0.83 0.551-1.329v-2.12h8v2.12c0.001 0.498 0.199 0.976 0.551 1.329s0.83 0.551 1.329 0.551h0.24c0.395-0.001 0.78-0.128 1.1-0.361s0.557-0.561 0.679-0.937c0.303 0.194 0.656 0.297 1.016 0.298h0.172c0.507-0 0.994-0.202 1.353-0.561s0.561-0.845 0.561-1.353v-1.086h0.5c0.398-0 0.779-0.159 1.060-0.44s0.439-0.663 0.44-1.060v-1c-0.002-0.051-0.008-0.103-0.016-0.153 1.967-2.719 3.023-5.991 3.016-9.347zM5 27h-0.5c-0.133-0-0.26-0.053-0.353-0.147s-0.146-0.221-0.147-0.353v-1c0-0.133 0.053-0.26 0.147-0.353s0.221-0.146 0.353-0.147h0.5v2zM8 29.086c-0 0.242-0.097 0.475-0.268 0.646s-0.404 0.268-0.646 0.268h-0.172c-0.242-0-0.475-0.097-0.646-0.268s-0.268-0.404-0.268-0.646v-5.172c0-0.242 0.097-0.475 0.268-0.646s0.404-0.268 0.646-0.268h0.172c0.242 0 0.475 0.097 0.646 0.268s0.268 0.404 0.268 0.646v5.172zM11 30.12c-0 0.233-0.093 0.457-0.258 0.622s-0.389 0.258-0.622 0.258h-0.24c-0.233-0-0.457-0.093-0.622-0.258s-0.258-0.389-0.258-0.622v-8.24c0-0.233 0.093-0.457 0.258-0.622s0.389-0.258 0.622-0.258h0.24c0.233 0 0.457 0.093 0.622 0.258s0.258 0.389 0.258 0.622v8.24zM20 27h-8v-2h8v2zM23 23.914v6.206c-0 0.233-0.093 0.457-0.258 0.622s-0.389 0.258-0.622 0.258h-0.24c-0.233-0-0.457-0.093-0.622-0.258s-0.258-0.389-0.258-0.622v-8.24c0-0.233 0.093-0.457 0.258-0.622s0.389-0.258 0.622-0.258h0.24c0.233 0 0.457 0.093 0.622 0.258s0.258 0.389 0.258 0.622v2.034zM26 29.086c-0 0.242-0.097 0.475-0.268 0.646s-0.404 0.268-0.646 0.268h-0.172c-0.242-0-0.475-0.097-0.646-0.268s-0.268-0.404-0.268-0.646v-5.172c0-0.242 0.097-0.475 0.268-0.646s0.404-0.268 0.646-0.268h0.172c0.242 0 0.475 0.097 0.646 0.268s0.268 0.404 0.268 0.646v5.172zM26.179 22.347c-0.32-0.225-0.702-0.346-1.093-0.346h-0.172c-0.32 0.002-0.635 0.086-0.914 0.243v-0.363c-0.001-0.498-0.199-0.976-0.551-1.329s-0.83-0.551-1.329-0.551h-0.24c-0.498 0.001-0.976 0.199-1.329 0.551s-0.551 0.83-0.551 1.329v2.12h-8v-2.12c-0.001-0.498-0.199-0.976-0.551-1.329s-0.83-0.551-1.329-0.551h-0.24c-0.498 0.001-0.976 0.199-1.329 0.551s-0.551 0.83-0.551 1.329v0.363c-0.279-0.157-0.594-0.241-0.914-0.243h-0.172c-0.391 0-0.773 0.121-1.093 0.346-1.098-1.759-1.719-3.774-1.802-5.846h1.481c0.133 0 0.26-0.053 0.354-0.146s0.146-0.221 0.146-0.354-0.053-0.26-0.146-0.354c-0.094-0.094-0.221-0.146-0.354-0.146h-1.476c0.109-2.833 1.228-5.534 3.153-7.615l1.044 1.044c0.094 0.092 0.221 0.144 0.352 0.143s0.258-0.053 0.351-0.146c0.093-0.093 0.146-0.219 0.146-0.351s-0.051-0.258-0.143-0.352l-1.044-1.044c2.081-1.926 4.782-3.044 7.616-3.153v1.476c0 0.133 0.053 0.26 0.146 0.354s0.221 0.146 0.354 0.146 0.26-0.053 0.354-0.146c0.094-0.094 0.146-0.221 0.146-0.354v-1.476c2.833 0.109 5.534 1.227 7.616 3.153l-1.044 1.044c-0.047 0.046-0.085 0.101-0.11 0.162s-0.039 0.126-0.039 0.192c-0 0.066 0.012 0.132 0.038 0.193s0.062 0.117 0.109 0.163c0.047 0.047 0.102 0.084 0.163 0.109s0.127 0.038 0.193 0.038c0.066-0 0.131-0.014 0.192-0.040s0.116-0.063 0.162-0.111l1.044-1.044c1.925 2.081 3.044 4.782 3.153 7.616h-1.476c-0.133 0-0.26 0.053-0.354 0.146s-0.146 0.221-0.146 0.354 0.053 0.26 0.146 0.354c0.094 0.094 0.221 0.146 0.354 0.146h1.481c-0.083 2.072-0.704 4.087-1.802 5.846zM28 26.5c-0 0.133-0.053 0.26-0.147 0.353s-0.221 0.146-0.353 0.147h-0.5v-2h0.5c0.133 0 0.26 0.053 0.353 0.147s0.146 0.221 0.147 0.353v1zM28.454 24.352c-0.267-0.226-0.604-0.351-0.954-0.352h-0.5v-0.086c0-0.26-0.053-0.517-0.156-0.755 1.296-1.959 2.036-4.233 2.143-6.579s-0.424-4.678-1.536-6.747c-1.112-2.069-2.764-3.798-4.78-5.003s-4.321-1.841-6.67-1.841c-2.349 0-4.654 0.636-6.67 1.841s-3.668 2.934-4.78 5.003c-1.112 2.069-1.643 4.4-1.536 6.747s0.847 4.62 2.143 6.579c-0.103 0.238-0.156 0.495-0.156 0.755v0.086h-0.5c-0.349 0.002-0.687 0.126-0.954 0.352-1.305-1.946-2.136-4.171-2.426-6.496s-0.032-4.686 0.755-6.893c0.787-2.207 2.079-4.199 3.775-5.817s3.746-2.815 5.988-3.497c2.242-0.682 4.612-0.829 6.921-0.43s4.492 1.334 6.375 2.729c1.882 1.395 3.412 3.212 4.466 5.305s1.602 4.403 1.602 6.747c0.005 2.976-0.882 5.885-2.546 8.352z">
            </path>
        </symbol>
        <symbol id="icon-wallet" viewBox="0 0 32 32">
            <path fill="#f7931e" style="fill: var(--color1, #f7931e)"
                d="M31.333 26.667c0 1.841-1.492 3.333-3.333 3.333h-24c-1.841 0-3.333-1.492-3.333-3.333v-19.333c0-1.473 1.194-2.667 2.667-2.667h13.447l5.399-1.956c0.342-0.125 0.721 0.052 0.845 0.393l0.569 1.563h2.406c1.473 0 2.667 1.194 2.667 2.667v1.333c1.473 0 2.667 1.194 2.667 2.667v15.333zM3.333 6c-0.736 0-1.333 0.597-1.333 1.333s0.597 1.333 1.333 1.333h2.423c0.009-0.003 0.014-0.011 0.023-0.014l7.321-2.653h-9.767zM22.719 6.121l-0.708-1.949h-0.001l-12.407 4.495h14.041l-0.925-2.546zM27.333 7.333c0-0.736-0.597-1.333-1.333-1.333h-1.922l0.969 2.667h2.286v-1.333zM28.667 10h-25.333c-0.488 0-0.94-0.141-1.333-0.37v17.037c0 1.105 0.896 2 2 2h24c1.105 0 2-0.895 2-2v-4.667h-2.667c-1.473 0-2.667-1.194-2.667-2.667s1.194-2.667 2.667-2.667h2.667v-5.333c0-0.736-0.597-1.333-1.333-1.333zM30 20.667v-2.667h-2.667c-0.736 0-1.333 0.597-1.333 1.333s0.597 1.333 1.333 1.333h2.667zM27.333 18.667h1.333v1.333h-1.333v-1.333z">
            </path>
        </symbol>
        <symbol id="icon-location" viewBox="0 0 32 32">
            <path fill="#f7931e" style="fill: var(--color1, #f7931e)"
                d="M18.667 10.333c0-1.473-1.193-2.667-2.667-2.667s-2.667 1.193-2.667 2.667c0 1.473 1.193 2.667 2.667 2.667s2.667-1.193 2.667-2.667zM14.667 10.333c0-0.733 0.6-1.333 1.333-1.333s1.333 0.6 1.333 1.333c0 0.733-0.6 1.333-1.333 1.333s-1.333-0.6-1.333-1.333z">
            </path>
            <path fill="#f7931e" style="fill: var(--color1, #f7931e)"
                d="M2.667 27h26.667c0.233 0 0.447-0.12 0.567-0.32s0.133-0.44 0.027-0.647l-5.333-10.667c-0.113-0.227-0.34-0.367-0.593-0.367h-4.153c0.987-2.18 1.487-3.753 1.487-4.667 0-2.94-2.393-5.333-5.333-5.333s-5.333 2.393-5.333 5.333c0 0.913 0.5 2.487 1.487 4.667h-4.153c-0.253 0-0.48 0.14-0.593 0.367l-5.333 10.667c-0.107 0.207-0.093 0.453 0.027 0.647 0.12 0.2 0.333 0.32 0.567 0.32zM12 10.333c0-2.207 1.793-4 4-4s4 1.793 4 4c0 1.527-2.013 5.707-4 9.307-1.987-3.6-4-7.78-4-9.307zM8.413 16.333h4.367c1.247 2.573 2.587 4.9 2.647 5 0.24 0.413 0.92 0.413 1.153 0 0.060-0.1 1.4-2.427 2.647-5h4.367l4.667 9.333h-24.513l4.667-9.333z">
            </path>
        </symbol>
        <symbol id="icon-dumbbell" viewBox="0 0 32 32">
            <path fill="#f7931e" style="fill: var(--color1, #f7931e)"
                d="M3.6 21.2h2.4v0.4c0 0.882 0.718 1.6 1.6 1.6h2.4c0.882 0 1.6-0.718 1.6-1.6v-3.2h8.8v3.2c0 0.882 0.718 1.6 1.6 1.6h2.4c0.882 0 1.6-0.718 1.6-1.6v-0.4h2.4c0.882 0 1.6-0.718 1.6-1.6v-7.2c0-0.882-0.718-1.6-1.6-1.6h-2.4v-0.4c0-0.882-0.718-1.6-1.6-1.6h-2.4c-0.882 0-1.6 0.718-1.6 1.6v3.2h-8.8v-3.2c0-0.882-0.718-1.6-1.6-1.6h-2.4c-0.882 0-1.6 0.718-1.6 1.6v0.4h-2.4c-0.882 0-1.6 0.718-1.6 1.6v7.2c0 0.882 0.718 1.6 1.6 1.6zM28.4 12.4v7.2h-2.4v-7.2h2.4zM22 10.4h2.4v11.2h-2.4v-11.2zM20.3 15.2v1.6h-8.7v-1.6h8.7zM7.6 10.4h2.4l0 3.2h-0v4.8h0.001l0 3.2h-2.401v-11.2zM3.6 12.4h2.4v7.2h-2.4v-7.2z">
            </path>
        </symbol>
        <symbol id="icon-stationary-bike" viewBox="0 0 32 32">
            <path fill="#f7931e" style="fill: var(--color1, #f7931e)"
                d="M28.32 24.592c1.066-0.787 1.76-2.048 1.76-3.472 0-1.91-1.229-3.568-3.056-4.128l-2.326-0.714 1.053-5.011c2.246-1.040 3.93-3.085 4.467-5.562 0.125-0.579-0.013-1.171-0.384-1.629-0.365-0.454-0.915-0.717-1.504-0.717h-0.083c-0.864 0-1.594 0.608-1.77 1.478-0.333 1.629-1.6 2.896-3.226 3.235-0.717 0.147-1.264 0.717-1.43 1.421-0.022 0.042-0.038 0.086-0.048 0.134l-1.139 5.408-9.818-3.005-0.912-2.272h0.522c1.133 0 2.054-0.922 2.054-2.054 0-0.963-0.685-1.808-1.626-2.013l-5.418-1.158c-0.784-0.17-1.59 0.022-2.214 0.528-0.624 0.502-0.982 1.254-0.982 2.054 0 1.459 1.184 2.643 2.643 2.643h0.445l0.902 2.259c-0.646 0.227-1.264 0.554-1.834 0.976-1.779 1.312-2.797 3.334-2.797 5.546 0 2.371 1.203 4.464 3.027 5.709-1.728 0.371-3.027 1.91-3.027 3.75 0 0.352 0.288 0.64 0.64 0.64h27.52c0.352 0 0.64-0.288 0.64-0.64 0-1.482-0.845-2.768-2.080-3.408zM23.514 9.325c2.125-0.442 3.779-2.102 4.218-4.23 0.054-0.266 0.266-0.454 0.515-0.454h0.083c0.275 0 0.438 0.15 0.509 0.24 0.125 0.154 0.173 0.355 0.128 0.554-0.557 2.563-2.57 4.576-5.133 5.133-0.198 0.045-0.403-0.003-0.557-0.128-0.090-0.070-0.237-0.23-0.237-0.496 0-0.301 0.198-0.56 0.474-0.618zM22.672 11.568c0.307 0.192 0.656 0.294 1.014 0.294 0.138 0 0.278-0.013 0.419-0.045 0.077-0.016 0.157-0.042 0.234-0.061l-0.87 4.147-1.606-0.49 0.81-3.846zM4.883 8.48c-0.752 0-1.363-0.611-1.363-1.363 0-0.413 0.186-0.8 0.506-1.059 0.246-0.198 0.547-0.304 0.854-0.304 0.096 0 0.192 0.010 0.288 0.032l5.418 1.162c0.355 0.074 0.614 0.394 0.614 0.758 0 0.426-0.349 0.774-0.774 0.774h-5.542zM9.296 11.687c-0.608-0.074-1.216-0.064-1.811 0.026l-0.781-1.952h1.824l0.768 1.926zM2.88 18.541c0-1.802 0.829-3.446 2.278-4.518 0.986-0.73 2.141-1.107 3.325-1.107 0.554 0 1.11 0.083 1.661 0.253l16.506 5.046c1.286 0.394 2.15 1.562 2.15 2.906 0 1.677-1.363 3.040-3.040 3.040h-17.261c-3.098 0-5.619-2.522-5.619-5.619zM2.96 27.36c0.285-1.104 1.29-1.92 2.48-1.92h21.12c1.19 0 2.195 0.816 2.48 1.92h-26.080zM11.136 21.632l0.934 0.781c0.010 0.006 0.019 0.013 0.029 0.019 0.013 0.010 0.029 0.019 0.045 0.029 0.019 0.013 0.038 0.022 0.058 0.032 0.016 0.010 0.032 0.016 0.045 0.022 0.026 0.010 0.048 0.016 0.074 0.022 0.013 0.003 0.026 0.006 0.042 0.010 0.038 0.010 0.077 0.013 0.118 0.013h1.6c0.352 0 0.64-0.288 0.64-0.64s-0.288-0.64-0.64-0.64h-1.37l-0.755-0.63c0.333-0.566 0.525-1.226 0.525-1.93 0-2.118-1.722-3.84-3.84-3.84s-3.84 1.722-3.84 3.84c0 2.118 1.722 3.84 3.84 3.84 0.954 0 1.824-0.352 2.496-0.928zM6.080 18.72c0-1.411 1.149-2.56 2.56-2.56s2.56 1.149 2.56 2.56c0 0.39-0.090 0.762-0.25 1.094l-1.901-1.587c-0.272-0.224-0.675-0.189-0.902 0.083-0.224 0.272-0.189 0.675 0.083 0.902l1.901 1.584c-0.419 0.304-0.934 0.483-1.491 0.483-1.411 0-2.56-1.149-2.56-2.56zM16.64 21.92c0-0.352 0.288-0.64 0.64-0.64h0.64c0.352 0 0.64 0.288 0.64 0.64s-0.288 0.64-0.64 0.64h-0.64c-0.352 0-0.64-0.288-0.64-0.64zM20.48 21.92c0-0.352 0.288-0.64 0.64-0.64h0.64c0.352 0 0.64 0.288 0.64 0.64s-0.288 0.64-0.64 0.64h-0.64c-0.352 0-0.64-0.288-0.64-0.64zM24.32 21.92c0-0.352 0.288-0.64 0.64-0.64h0.64c0.352 0 0.64 0.288 0.64 0.64s-0.288 0.64-0.64 0.64h-0.64c-0.352 0-0.64-0.288-0.64-0.64z">
            </path>
        </symbol>
        <symbol id="icon-facebook" viewBox="0 0 32 32">
            <path
                d="M29 0h-26c-1.65 0-3 1.35-3 3v26c0 1.65 1.35 3 3 3h13v-14h-4v-4h4v-2c0-3.306 2.694-6 6-6h4v4h-4c-1.1 0-2 0.9-2 2v2h6l-1 4h-5v14h9c1.65 0 3-1.35 3-3v-26c0-1.65-1.35-3-3-3z">
            </path>
        </symbol>
        <symbol id="icon-instagram" viewBox="0 0 32 32">
            <path
                d="M16 2.881c4.275 0 4.781 0.019 6.462 0.094 1.563 0.069 2.406 0.331 2.969 0.55 0.744 0.288 1.281 0.638 1.837 1.194 0.563 0.563 0.906 1.094 1.2 1.838 0.219 0.563 0.481 1.412 0.55 2.969 0.075 1.688 0.094 2.194 0.094 6.463s-0.019 4.781-0.094 6.463c-0.069 1.563-0.331 2.406-0.55 2.969-0.288 0.744-0.637 1.281-1.194 1.837-0.563 0.563-1.094 0.906-1.837 1.2-0.563 0.219-1.413 0.481-2.969 0.55-1.688 0.075-2.194 0.094-6.463 0.094s-4.781-0.019-6.463-0.094c-1.563-0.069-2.406-0.331-2.969-0.55-0.744-0.288-1.281-0.637-1.838-1.194-0.563-0.563-0.906-1.094-1.2-1.837-0.219-0.563-0.481-1.413-0.55-2.969-0.075-1.688-0.094-2.194-0.094-6.463s0.019-4.781 0.094-6.463c0.069-1.563 0.331-2.406 0.55-2.969 0.288-0.744 0.638-1.281 1.194-1.838 0.563-0.563 1.094-0.906 1.838-1.2 0.563-0.219 1.412-0.481 2.969-0.55 1.681-0.075 2.188-0.094 6.463-0.094zM16 0c-4.344 0-4.887 0.019-6.594 0.094-1.7 0.075-2.869 0.35-3.881 0.744-1.056 0.412-1.95 0.956-2.837 1.85-0.894 0.888-1.438 1.781-1.85 2.831-0.394 1.019-0.669 2.181-0.744 3.881-0.075 1.713-0.094 2.256-0.094 6.6s0.019 4.887 0.094 6.594c0.075 1.7 0.35 2.869 0.744 3.881 0.413 1.056 0.956 1.95 1.85 2.837 0.887 0.887 1.781 1.438 2.831 1.844 1.019 0.394 2.181 0.669 3.881 0.744 1.706 0.075 2.25 0.094 6.594 0.094s4.888-0.019 6.594-0.094c1.7-0.075 2.869-0.35 3.881-0.744 1.050-0.406 1.944-0.956 2.831-1.844s1.438-1.781 1.844-2.831c0.394-1.019 0.669-2.181 0.744-3.881 0.075-1.706 0.094-2.25 0.094-6.594s-0.019-4.887-0.094-6.594c-0.075-1.7-0.35-2.869-0.744-3.881-0.394-1.063-0.938-1.956-1.831-2.844-0.887-0.887-1.781-1.438-2.831-1.844-1.019-0.394-2.181-0.669-3.881-0.744-1.712-0.081-2.256-0.1-6.6-0.1v0z">
            </path>
            <path
                d="M16 7.781c-4.537 0-8.219 3.681-8.219 8.219s3.681 8.219 8.219 8.219 8.219-3.681 8.219-8.219c0-4.537-3.681-8.219-8.219-8.219zM16 21.331c-2.944 0-5.331-2.387-5.331-5.331s2.387-5.331 5.331-5.331c2.944 0 5.331 2.387 5.331 5.331s-2.387 5.331-5.331 5.331z">
            </path>
            <path
                d="M26.462 7.456c0 1.060-0.859 1.919-1.919 1.919s-1.919-0.859-1.919-1.919c0-1.060 0.859-1.919 1.919-1.919s1.919 0.859 1.919 1.919z">
            </path>
        </symbol>
    </defs>
</svg>